<svg xmlns="http://www.w3.org/2000/svg" width="151" height="157" viewBox="0 0 151 157" fill="none">
  <g filter="url(#filter0_d_127_86)">
    <path fill-rule="evenodd" clip-rule="evenodd" d="M144.201 95.203C143.661 97.1524 143.047 99.0688 142.362 100.949L47.3901 5.97749C49.1652 5.18593 50.9773 4.46705 52.8229 3.82447L144.201 95.203ZM42.0503 8.63771C43.4783 7.84876 44.9349 7.10876 46.4183 6.41984L141.977 101.979C141.378 103.553 140.728 105.1 140.031 106.618L42.0503 8.63771ZM41.145 9.14663L139.58 107.582C138.877 109.057 138.129 110.505 137.336 111.924L37.0739 11.6613C38.4017 10.778 39.7594 9.93908 41.145 9.14663ZM133.901 117.489C134.929 115.975 135.905 114.42 136.824 112.826L36.2299 12.2315C34.7395 13.254 33.288 14.333 31.8782 15.4656L133.901 117.489ZM133.324 118.326C132.423 119.614 131.484 120.871 130.508 122.095L27.5999 19.1872C28.7339 18.1204 29.9008 17.0909 31.099 16.1006L133.324 118.326ZM126.461 126.755C127.642 125.505 128.781 124.211 129.875 122.877L26.876 19.8776C25.6414 21.0712 24.4474 22.3098 23.2963 23.5907L126.461 126.755ZM125.769 127.477C124.473 128.813 123.129 130.096 121.738 131.326L19.1063 28.6937C20.2287 27.1956 21.4048 25.7435 22.6318 24.3404L125.769 127.477ZM116.184 135.771C117.835 134.578 119.436 133.315 120.983 131.984L18.5054 29.507C17.2937 31.1709 16.1476 32.8894 15.071 34.6584L116.184 135.771ZM115.357 136.359C113.859 137.409 112.321 138.401 110.746 139.333L11.8785 40.4659C12.7076 38.7868 13.5961 37.1447 14.5411 35.5427L115.357 136.359ZM104.178 142.765C106.115 141.88 108.008 140.908 109.852 139.853L11.4166 41.4182C10.482 43.3801 9.62784 45.3909 8.85876 47.4461L104.178 142.765ZM103.201 143.202C100.935 144.195 98.6096 145.07 96.2321 145.819L6.25824 55.8456C6.87889 53.3373 7.62178 50.8801 8.47988 48.4815L103.201 143.202ZM88.2343 147.822C90.5811 147.382 92.8881 146.823 95.1494 146.151L5.98515 56.9867C5.43468 59.3674 4.99393 61.7925 4.66877 64.2561L88.2343 147.822ZM77.9554 148.957C77.1398 148.986 76.3207 149 75.4984 149C73.7204 149 71.9576 148.932 70.2121 148.799L4.46435 83.0517C4.17437 80.4079 4.01721 77.722 4 75.0015L77.9554 148.957ZM79.3088 148.896L4.00363 73.5909C4.03496 70.861 4.2072 68.1664 4.51313 65.5147L87.0339 148.035C84.501 148.464 81.9235 148.753 79.3088 148.896ZM68.6623 148.664C65.5641 148.358 62.5235 147.846 59.5532 147.141L6.4937 94.0811C5.6941 91.0146 5.07775 87.8694 4.65766 84.6592L68.6623 148.664ZM47.4715 143.059C50.7496 144.516 54.1536 145.725 57.6616 146.663L7.02999 96.0316C8.07484 99.6437 9.37577 103.14 10.9108 106.498L47.4715 143.059ZM44.8033 141.805L12.2246 109.226C19.4111 123.413 30.8637 134.89 44.8033 141.805ZM144.501 94.0885C144.892 92.5912 145.239 91.0751 145.54 89.5418L58.195 2.19643C56.7381 2.57371 55.2989 2.99754 53.879 3.46633L144.501 94.0885ZM146.484 83.4853C146.295 85.1245 146.054 86.7473 145.765 88.352L59.3264 1.91365C60.8538 1.54569 62.3999 1.22871 63.9629 0.964536L146.484 83.4853ZM146.62 82.2078C146.823 80.1574 146.945 78.0823 146.984 75.9861L71.1349 0.136462C69.1272 0.262397 67.1419 0.47465 65.1823 0.769709L146.62 82.2078ZM146.998 74.5L146.998 74.5857L72.4779 0.0652755C73.4796 0.0219019 74.4865 0 75.4984 0C76.3508 0 77.1996 0.0155403 78.0448 0.0463638L146.792 68.7934C146.929 70.6769 146.998 72.58 146.998 74.5ZM146.664 67.2517C146.423 64.6471 146.053 62.0816 145.561 59.5624L86.9486 0.950177C84.5143 0.54192 82.0389 0.261707 79.529 0.116381L146.664 67.2517ZM141.952 46.9533C143.284 50.4395 144.371 54.0553 145.19 57.7775L88.6751 1.26247C92.2802 1.96225 95.7901 2.94389 99.183 4.18462L141.952 46.9533ZM101.487 5.0739C119.156 12.2599 133.408 26.5576 141.003 44.5902L101.487 5.0739Z" fill="url(#paint0_linear_127_86)" fill-opacity="0.75" shape-rendering="crispEdges"/>
  </g>
  <defs>
    <filter id="filter0_d_127_86" x="0" y="0" width="150.999" height="157" filterUnits="userSpaceOnUse" color-interpolation-filters="sRGB">
      <feFlood flood-opacity="0" result="BackgroundImageFix"/>
      <feColorMatrix in="SourceAlpha" type="matrix" values="0 0 0 0 0 0 0 0 0 0 0 0 0 0 0 0 0 0 127 0" result="hardAlpha"/>
      <feOffset dy="4"/>
      <feGaussianBlur stdDeviation="2"/>
      <feComposite in2="hardAlpha" operator="out"/>
      <feColorMatrix type="matrix" values="0 0 0 0 0 0 0 0 0 0 0 0 0 0 0 0 0 0 0.25 0"/>
      <feBlend mode="normal" in2="BackgroundImageFix" result="effect1_dropShadow_127_86"/>
      <feBlend mode="normal" in="SourceGraphic" in2="effect1_dropShadow_127_86" result="shape"/>
    </filter>
    <linearGradient id="paint0_linear_127_86" x1="16.9984" y1="31" x2="78.2746" y2="147.54" gradientUnits="userSpaceOnUse">
      <stop offset="0.0001" stop-color="#B2F97A"/>
      <stop offset="0.526042" stop-color="white"/>
      <stop offset="1" stop-color="#A56FFF"/>
    </linearGradient>
  </defs>
</svg>